Simulation
nRows=20
nColumns=15
endheader
time  TH_x TH_y TH_z SC_y  SC_z  SC_x  AC_y  AC_z  AC_x  GH_y  GH_z  GH_yy  EL_x  PS_y
0.0  0.000000  0.000000  0.000000  -30.77680258014539  -0.6825835023599166  72.63250923145641  29.189614508945375  -47.11668045461713  -62.497049162491926  35.22366835595919  -0.5985827263803619  -6.723505380026246  23.12764208808446  0.000000
0.031  0.000000  0.000000  0.000000  -30.79177298061175  -0.4641564278190482  72.66063191429691  29.397799260894033  -46.93416892532176  -62.7568081787285  35.16001754472494  -0.6730551094829378  -6.786255281522095  23.036047354953496  0.000000
0.062  0.000000  0.000000  0.000000  -30.742380239174356  -0.3787159222129156  72.68460512651099  29.481140119466865  -46.71811362940177  -62.95088891103493  35.13046760923307  -0.7703384064854742  -6.805621085834817  22.819873614685747  0.000000
0.093  0.000000  0.000000  0.000000  -30.656451085105957  -0.35904283041685814  72.68305192762307  29.43734633485822  -46.47996866972073  -63.07803573946553  35.125952070142354  -0.831462363592526  -6.78413505440131  22.642011303008474  0.000000
0.124  0.000000  0.000000  0.000000  -30.534291179913055  -0.3922837462040103  72.65643302080363  29.285026725703222  -46.224547275194936  -63.13383817961164  35.1662831511178  -0.8151918052442452  -6.695773841136137  22.533823421866135  0.000000
0.155  0.000000  0.000000  0.000000  -30.37440986341958  -0.49241717530742873  72.64599681186188  28.96508359757619  -45.84145821427724  -63.126634751556594  35.251090815134134  -0.7861299352104362  -6.537031569576513  22.39021083047  0.000000
0.186  0.000000  0.000000  0.000000  -30.250755073686012  -0.6346774961174411  72.76045065210823  28.31510848423564  -45.01618142500957  -63.049463877188835  35.37496975498209  -0.9938645402343114  -6.310282745129473  22.129904143181857  0.000000
0.217  0.000000  0.000000  0.000000  -30.051456648768397  -0.856021426423839  72.94226852886554  27.594125583038515  -44.19671635663715  -62.97246243023299  35.31043363852022  -1.1856233207674347  -6.213537731524261  21.937066201328797  0.000000
0.248  0.000000  0.000000  0.000000  -29.72476089311117  -1.122251632565607  73.14127793834473  27.286271884010713  -44.33514333624074  -63.12120390452064  34.899913044470246  -0.7615247459784187  -6.366762451038473  22.014282534367737  0.000000
0.279  0.000000  0.000000  0.000000  -29.72643391822705  -1.1865888076774749  73.3701295548538  27.17548501502663  -44.63956245225257  -63.387095790815344  34.51450485242596  -0.01514728415938154  -6.403768476988947  22.028803745546536  0.000000
0.31  0.000000  0.000000  0.000000  -30.125854799489762  -1.0298535783005482  73.3575143558863  27.169350298404694  -44.56234610247075  -63.440802415743676  34.09577405518914  0.9261926507071946  -6.405782507301249  21.755212864264948  0.000000
0.34099999999999997  0.000000  0.000000  0.000000  -30.50702908040383  -0.8914218221205861  72.96469965128809  27.655676195718886  -44.95816698426208  -63.24955403168596  33.36953738968935  2.4990054375292363  -6.6851075047549  21.453849507150142  0.000000
0.372  0.000000  0.000000  0.000000  -30.799455858277007  -0.8597471532473115  72.52078968977825  28.373169010353116  -45.526248863585664  -62.914028897786636  32.53468345362624  4.264685763624503  -7.043089856990612  21.23439770473573  0.000000
0.403  0.000000  0.000000  0.000000  -31.016232008683534  -0.8745181641251071  72.21234403263287  28.859952009915265  -45.64326604255393  -62.45965576647868  31.69093103274293  5.697666858201641  -7.333822903115346  21.027275535348235  0.000000
0.434  0.000000  0.000000  0.000000  -31.080163193428955  -0.915039652659558  72.0033808170168  29.080264181408097  -45.35784959942929  -61.92309783077163  30.85004633676276  6.819343742625831  -7.522071240673481  20.883126455896164  0.000000
0.46499999999999997  0.000000  0.000000  0.000000  -31.015681759653077  -0.9985719437891621  71.87407365145818  29.136447192628513  -44.81413659994165  -61.34860472692192  30.049461150453215  7.749273170197795  -7.58762441902577  20.920090022268877  0.000000
0.496  0.000000  0.000000  0.000000  -30.884874597209258  -1.1713013990787213  71.81494470530261  29.248649275561718  -44.38116538967838  -60.79641613548641  29.263955175328785  8.754476494528793  -7.660506751201973  21.148237880662776  0.000000
0.527  0.000000  0.000000  0.000000  -30.774296367115067  -1.313787736155106  71.84225869555246  29.552454881292952  -44.42832582911848  -60.304575615705936  28.493955874639557  10.052374923904502  -7.87240829118668  21.446883685716877  0.000000
0.558  0.000000  0.000000  0.000000  -30.770811574258158  -1.2831633415735568  71.8609871605323  29.951101751138424  -44.69305795514126  -59.77605932299872  27.763396207605037  11.573210868278235  -8.185968891531033  21.694738212287323  0.000000
0.589  0.000000  0.000000  0.000000  -30.80594447623767  -1.1931785858527806  71.81035289003233  30.37358336114995  -44.79464535216012  -59.17876086852038  27.048153218856587  13.179382276113426  -8.527825553527402  21.792873297577195  0.000000
